<svg width="161" height="32" viewBox="0 0 161 32" fill="none" xmlns="http://www.w3.org/2000/svg">
<path d="M10.7557 30.8708H4.71594V15.6536H0.601562V10.6992H4.71578V7.1738C4.71578 2.99617 6.53551 0 12.5589 0C13.8328 0 15.8329 0.259522 15.8329 0.259522V4.85997H13.7322C11.5917 4.85997 10.756 5.51801 10.756 7.33726V10.6992H15.7528L15.3078 15.6536H10.7558L10.7557 30.8708ZM24.614 10.3033C24.526 10.3033 24.4354 10.3065 24.3458 10.3088C18.7455 10.3088 16.1831 14.5665 16.1831 20.6103C16.1831 28.2239 19.5068 31.2711 24.3896 31.2711C27.1832 31.2711 29.0187 30.0827 30.1342 27.865V30.873H35.8789V10.7013H30.1342V13.8034C29.2233 11.8076 27.3366 10.3269 24.614 10.3033ZM26.0747 15.0698C28.4269 15.0698 29.8387 16.728 29.8387 19.5486L29.8441 22.4294C29.8441 24.3305 28.6781 26.5545 26.0747 26.5545C22.0723 26.5545 22.1793 22.1867 22.1793 20.732C22.1793 15.8385 24.3117 15.0698 26.0747 15.0698ZM38.1989 20.7882C38.1989 18.337 38.0828 10.3164 48.4219 10.3164C52.5722 10.3164 54.3052 11.6502 54.3052 11.6502L52.9123 16.0165C52.9123 16.0165 51.1816 15.0533 48.9263 15.0533C46.0378 15.0533 44.1947 16.7457 44.1947 19.7234L44.1979 21.8585C44.1979 24.7197 45.9763 26.6297 48.9323 26.6297C50.9868 26.6297 52.8804 25.6574 52.8804 25.6574L54.2698 29.9325C54.2698 29.9325 52.6852 31.2747 48.4509 31.2747C38.6065 31.2747 38.199 24.0787 38.199 20.7882H38.1989ZM87.9882 10.3088C93.5887 10.3088 96.1915 14.5665 96.1915 20.6103C96.1915 28.2239 92.8676 31.2711 87.9848 31.2711C85.1912 31.2711 83.1261 30.0829 82.0105 27.865V30.873L76.3381 30.8707V0.613328L82.3607 0.0824575V13.5302C83.2299 11.1774 86.0865 10.3088 87.9883 10.3088H87.9882ZM86.2997 15.0698C83.9475 15.0698 82.3607 16.728 82.3607 19.5486L82.3551 22.4294C82.3516 24.3305 83.454 26.5545 86.2997 26.5545C90.3021 26.5545 90.1952 22.1867 90.1952 20.732C90.1952 15.8385 88.0629 15.0698 86.2997 15.0698ZM64.7549 10.3255C58.4028 10.3255 55.0493 13.8258 55.0493 20.0462V21.2019C55.0493 29.2755 59.7586 31.3541 65.3731 31.3541C70.8304 31.3541 73.3005 29.8114 73.3005 29.8114L72.1736 25.7031C72.1736 25.7031 69.2679 26.9526 66.0952 26.9526C62.8061 26.9526 61.3916 26.1053 61.029 22.9107H73.782V19.6148C73.782 12.8673 70.0184 10.3253 64.7547 10.3253L64.7549 10.3255ZM64.908 14.4393C67.1068 14.4393 68.5315 15.802 68.4533 18.9625H61.0401C61.1687 15.6361 62.7052 14.4395 64.908 14.4395V14.4393ZM108.2 10.2978C101.677 10.2978 98.243 14.0131 98.243 20.6711C98.243 29.8062 104.163 31.2767 108.211 31.2767C114.138 31.2767 118.081 28.0517 118.081 20.754C118.081 13.1584 113.647 10.2978 108.2 10.2978V10.2978ZM108.118 15.0863C110.986 15.0863 112.123 17.256 112.123 19.7256V21.849C112.123 24.8408 110.533 26.5712 108.107 26.5712C105.839 26.5712 104.245 24.9525 104.245 21.849V19.7256C104.245 16.4157 106.142 15.0863 108.118 15.0863V15.0863ZM130.079 10.2978C123.556 10.2978 120.122 14.0131 120.122 20.6711C120.122 29.8062 126.041 31.2767 130.09 31.2767C136.016 31.2767 139.96 28.0517 139.96 20.754C139.96 13.1584 135.526 10.2978 130.079 10.2978V10.2978ZM129.997 15.0863C132.865 15.0863 134.002 17.256 134.002 19.7256V21.849C134.002 24.8408 132.411 26.5712 129.986 26.5712C127.718 26.5712 126.123 24.9525 126.123 21.849V19.7256C126.123 16.4157 128.02 15.0863 129.997 15.0863V15.0863ZM142.236 30.8708V0.613328L148.276 0.0824575V20.3629L154.268 10.6992H160.647L154.396 20.708L160.888 30.8708H154.491L148.276 21.0028V30.8708H142.236Z" fill="#1873EB"/>
</svg>
