<svg width="315" height="333" viewBox="0 0 315 333" fill="none" xmlns="http://www.w3.org/2000/svg">
<rect x="2" width="312" height="333" fill="white"/>
<path d="M62.0929 149.831C33.4543 150.625 10.7294 173.688 2 184.669V264.845H314V96.5815C273.067 102.318 261.797 179.697 206.147 184.669C150.497 189.641 90.7315 149.037 62.0929 149.831Z" fill="url(#paint0_linear_2234_29517)"/>
<path d="M2 184.669C10.7294 173.688 33.4543 150.625 62.0929 149.831C90.7315 149.037 150.497 189.641 206.147 184.669C261.797 179.697 273.067 102.318 314 96.5815" stroke="#FDB52A" stroke-width="2.69423"/>
<rect x="2" y="86.6992" width="83.882" height="190.68" fill="url(#paint1_linear_2234_29517)"/>
<rect width="83.882" height="190.68" transform="matrix(-1 0 0 1 314 86.6992)" fill="url(#paint2_linear_2234_29517)"/>
<path d="M37.5307 59.6021H42.9946C44.9829 59.6021 46.4055 58.3573 46.4055 56.5791C46.4055 55.3506 45.6619 54.3483 44.3848 53.7179C45.3871 53.1521 45.9529 52.4246 45.9529 51.2607C45.9529 49.6442 44.6596 48.4964 42.8006 48.4964H37.5307V59.6021ZM39.1634 53.1197V49.9352H42.3803C43.4957 49.9352 44.2878 50.6141 44.2878 51.5355C44.2878 52.457 43.4957 53.1197 42.3803 53.1197H39.1634ZM39.1634 58.1633V54.51H42.639C43.8675 54.51 44.7405 55.2697 44.7405 56.3366C44.7405 57.4036 43.8675 58.1633 42.639 58.1633H39.1634ZM54.2616 51.2446V56.4336C54.2616 57.5329 53.2432 58.4058 51.9661 58.4058C50.8345 58.4058 50.0424 57.5491 50.0424 56.2882V51.2446H48.4744V56.563C48.4744 58.4866 49.7515 59.796 51.5943 59.796C52.7421 59.796 53.7605 59.2302 54.2616 58.4058V59.6021H55.862V51.2446H54.2616ZM61.2511 59.796C63.0939 59.796 64.4195 58.7938 64.4195 57.2096C64.4195 55.5445 62.9646 55.0919 61.5906 54.6878C60.168 54.2513 59.6022 54.0573 59.6022 53.4107C59.6022 52.7156 60.2812 52.3438 61.1218 52.3438C61.8815 52.3438 62.7221 52.6348 63.5466 53.1521L64.2094 52.0205C63.3203 51.4224 62.2048 51.0506 61.1218 51.0506C59.3597 51.0506 58.0827 52.0528 58.0827 53.5885C58.0827 54.9464 59.0526 55.496 60.9601 56.0295C62.027 56.3205 62.9 56.5791 62.9 57.3712C62.9 58.0502 62.2695 58.5028 61.2673 58.5028C60.3458 58.5028 59.3436 58.131 58.4222 57.4521L57.6947 58.5513C58.697 59.3596 60.0225 59.796 61.2511 59.796ZM67.1729 49.8543C67.7064 49.8543 68.1267 49.4017 68.1267 48.8844C68.1267 48.3833 67.7064 47.9307 67.1729 47.9307C66.6395 47.9307 66.203 48.3833 66.203 48.8844C66.203 49.4017 66.6395 49.8543 67.1729 49.8543ZM66.3646 59.6021H67.965V51.2446H66.3646V59.6021ZM74.8473 51.0506C73.6996 51.0506 72.665 51.6325 72.18 52.4731V51.2446H70.5796V59.6021H72.18V54.413C72.18 53.3137 73.2146 52.4408 74.4917 52.4408C75.6232 52.4408 76.4153 53.2976 76.4153 54.5585V59.6021H77.9672V54.2836C77.9672 52.36 76.6901 51.0506 74.8473 51.0506ZM84.0518 58.4705C82.5646 58.4705 81.53 57.4036 81.336 55.9325H88.0123C88.0123 52.9581 86.5251 51.0506 83.971 51.0506C81.6594 51.0506 79.768 52.8934 79.768 55.3991C79.768 57.9693 81.7725 59.796 84.0842 59.796C85.2642 59.796 86.7353 59.2949 87.4627 58.5028L86.5251 57.5167C86.0078 58.0663 84.9571 58.4705 84.0518 58.4705ZM84.0033 52.3761C85.4582 52.3761 86.2988 53.4107 86.4605 54.7524H81.3522C81.5947 53.3137 82.6616 52.3761 84.0033 52.3761ZM92.6346 59.796C94.4775 59.796 95.803 58.7938 95.803 57.2096C95.803 55.5445 94.3481 55.0919 92.9741 54.6878C91.5515 54.2513 90.9858 54.0573 90.9858 53.4107C90.9858 52.7156 91.6647 52.3438 92.5053 52.3438C93.2651 52.3438 94.1057 52.6348 94.9301 53.1521L95.5929 52.0205C94.7038 51.4224 93.5884 51.0506 92.5053 51.0506C90.7433 51.0506 89.4662 52.0528 89.4662 53.5885C89.4662 54.9464 90.4361 55.496 92.3436 56.0295C93.4106 56.3205 94.2835 56.5791 94.2835 57.3712C94.2835 58.0502 93.653 58.5028 92.6508 58.5028C91.7294 58.5028 90.7271 58.131 89.8057 57.4521L89.0782 58.5513C90.0805 59.3596 91.4061 59.796 92.6346 59.796ZM100.496 59.796C102.339 59.796 103.665 58.7938 103.665 57.2096C103.665 55.5445 102.21 55.0919 100.836 54.6878C99.4132 54.2513 98.8474 54.0573 98.8474 53.4107C98.8474 52.7156 99.5264 52.3438 100.367 52.3438C101.127 52.3438 101.967 52.6348 102.792 53.1521L103.455 52.0205C102.565 51.4224 101.45 51.0506 100.367 51.0506C98.6049 51.0506 97.3279 52.0528 97.3279 53.5885C97.3279 54.9464 98.2978 55.496 100.205 56.0295C101.272 56.3205 102.145 56.5791 102.145 57.3712C102.145 58.0502 101.515 58.5028 100.512 58.5028C99.591 58.5028 98.5888 58.131 97.6673 57.4521L96.9399 58.5513C97.9422 59.3596 99.2677 59.796 100.496 59.796ZM113.214 51.0506C112.293 51.0506 111.242 51.2931 110.046 51.8912L110.644 53.0712C111.371 52.6994 112.164 52.3761 112.988 52.3761C114.653 52.3761 115.138 53.4915 115.138 54.5423V54.8009C114.33 54.5261 113.441 54.3483 112.616 54.3483C110.773 54.3483 109.27 55.4637 109.27 57.1288C109.27 58.7615 110.595 59.796 112.357 59.796C113.392 59.796 114.524 59.3272 115.138 58.4705V59.6021H116.706V54.5423C116.706 52.4731 115.461 51.0506 113.214 51.0506ZM112.681 58.5351C111.614 58.5351 110.806 57.9855 110.806 57.0803C110.806 56.175 111.743 55.5445 112.859 55.5445C113.683 55.5445 114.443 55.6577 115.138 55.8679V56.9833C114.863 58.0178 113.715 58.5351 112.681 58.5351ZM122.873 59.796C124.117 59.796 125.2 59.2787 126.009 58.4543L124.926 57.4682C124.392 58.0502 123.649 58.4058 122.873 58.4058C121.353 58.4058 120.076 57.0479 120.076 55.4152C120.076 53.7987 121.353 52.4408 122.873 52.4408C123.632 52.4408 124.36 52.7803 124.877 53.3461L125.96 52.3438C125.152 51.5517 124.085 51.0506 122.873 51.0506C120.496 51.0506 118.46 53.0389 118.46 55.4152C118.46 57.7915 120.48 59.796 122.873 59.796ZM131.397 59.796C132.642 59.796 133.725 59.2787 134.533 58.4543L133.45 57.4682C132.917 58.0502 132.173 58.4058 131.397 58.4058C129.878 58.4058 128.601 57.0479 128.601 55.4152C128.601 53.7987 129.878 52.4408 131.397 52.4408C132.157 52.4408 132.885 52.7803 133.402 53.3461L134.485 52.3438C133.677 51.5517 132.61 51.0506 131.397 51.0506C129.021 51.0506 126.984 53.0389 126.984 55.4152C126.984 57.7915 129.005 59.796 131.397 59.796ZM139.922 59.796C142.331 59.796 144.319 57.8239 144.319 55.4152C144.319 53.0066 142.331 51.0506 139.922 51.0506C137.513 51.0506 135.525 53.0066 135.525 55.4152C135.525 57.8239 137.513 59.796 139.922 59.796ZM139.922 58.4058C138.386 58.4058 137.125 57.0641 137.125 55.4152C137.125 53.7664 138.386 52.4408 139.922 52.4408C141.458 52.4408 142.719 53.7664 142.719 55.4152C142.719 57.0641 141.458 58.4058 139.922 58.4058ZM151.869 51.2446V56.4336C151.869 57.5329 150.851 58.4058 149.574 58.4058C148.442 58.4058 147.65 57.5491 147.65 56.2882V51.2446H146.082V56.563C146.082 58.4866 147.359 59.796 149.202 59.796C150.35 59.796 151.368 59.2302 151.869 58.4058V59.6021H153.47V51.2446H151.869ZM160.378 51.0506C159.231 51.0506 158.196 51.6325 157.711 52.4731V51.2446H156.111V59.6021H157.711V54.413C157.711 53.3137 158.746 52.4408 160.023 52.4408C161.154 52.4408 161.946 53.2976 161.946 54.5585V59.6021H163.498V54.2836C163.498 52.36 162.221 51.0506 160.378 51.0506ZM169.518 58.0987C169.357 58.2765 169.033 58.4058 168.678 58.4058C168.209 58.4058 167.805 57.9855 167.805 57.4036V52.6025H169.777V51.2446H167.805V48.9491H166.237V51.2446H164.992V52.6025H166.237V57.5167C166.237 58.8584 167.142 59.796 168.435 59.796C169.033 59.796 169.664 59.5697 170.116 59.1979L169.518 58.0987Z" fill="#595959"/>
<path d="M62.4501 102.674C62.4501 97.4202 58.5884 95.2648 52.8856 93.8728V84.3083C55.0859 84.8471 57.1964 86.0146 59.0374 87.7209L61.6418 84.3083C59.217 82.1529 56.3881 80.6262 52.8856 80.1322V77.2584H49.0688V79.9975C43.5456 80.5363 39.6839 84.1736 39.6839 88.9783C39.6839 94.232 43.366 96.2078 49.0688 97.6447V107.658C45.9704 107.119 43.4558 105.638 41.2555 103.527L38.5613 106.895C41.3453 109.589 44.8478 111.295 49.0688 111.744V114.663H52.8856V111.744C59.0823 111.206 62.4501 107.479 62.4501 102.674ZM44.309 88.5741C44.309 86.3738 46.2398 84.443 49.0688 84.0388V92.8849C45.9255 91.897 44.309 90.8193 44.309 88.5741ZM52.8856 107.748V98.5877C56.2085 99.5755 57.8699 100.788 57.8699 103.123C57.8699 105.278 56.1636 107.299 52.8856 107.748ZM79.107 111.879C85.7527 111.879 90.4676 107.793 90.4676 101.551C90.4676 95.3995 85.8425 91.897 80.2744 91.897C77.5802 91.897 75.5146 92.7951 73.8981 93.8728L74.1675 84.7124H88.8062V80.4914H69.8568L69.4077 96.6119L72.5959 98.0488C74.437 96.6568 76.5923 95.8036 79.1519 95.8036C83.1483 95.8036 85.9323 98.1835 85.9323 101.731C85.9323 105.189 83.1932 107.883 79.1968 107.883C75.9188 107.883 73.0449 106.266 70.7099 103.796L67.881 107.03C70.4854 109.903 74.2124 111.879 79.107 111.879ZM109.756 111.34H114.291V104.246H118.736V100.249H114.291V80.4914H108.902L93.9494 100.608L94.4433 104.246H109.756V111.34ZM98.9337 100.249L109.756 85.6554V100.249H98.9337ZM126.433 117.492C129.307 114.214 130.339 112.283 130.339 110.173C130.339 107.703 129.037 105.907 127.061 105.907C125.355 105.907 124.098 107.299 124.098 108.871C124.098 110.532 125.4 111.879 127.016 111.879C126.657 113.271 125.804 114.708 124.547 116.055L126.433 117.492ZM149.934 91.8521C146.566 91.8521 143.467 93.3339 141.581 95.8934C141.761 89.113 145.264 84.0388 149.934 84.0388C152.762 84.0388 154.738 85.2512 156.624 87.0025L158.959 83.5C156.624 81.3895 153.795 79.9526 149.978 79.9526C142.479 79.9526 136.956 87.0474 136.956 96.3874C136.956 105.189 140.549 111.879 149.125 111.879C155.636 111.879 160.306 107.434 160.306 101.506C160.306 95.3995 155.591 91.8521 149.934 91.8521ZM148.991 108.017C144.904 108.017 142.704 105.054 141.941 100.608C142.794 97.6447 145.488 95.6689 148.901 95.6689C152.628 95.6689 155.681 97.959 155.681 101.731C155.681 104.829 153.167 108.017 148.991 108.017ZM175.707 79.9526C169.196 79.9526 164.526 84.3981 164.526 90.3254C164.526 96.4323 169.241 99.9797 174.899 99.9797C178.267 99.9797 181.365 98.4979 183.251 95.9383C183.071 102.719 179.569 107.793 174.899 107.793C172.07 107.793 170.094 106.581 168.208 104.829L165.873 108.332C168.208 110.442 171.037 111.879 174.854 111.879C182.353 111.879 187.876 104.784 187.876 95.4444C187.876 86.6433 184.284 79.9526 175.707 79.9526ZM175.932 96.1629C172.205 96.1629 169.151 93.8728 169.151 90.1008C169.151 87.0025 171.666 83.8143 175.842 83.8143C179.928 83.8143 182.128 86.778 182.892 91.2234C182.039 94.1871 179.344 96.1629 175.932 96.1629ZM204.624 111.879C211.09 111.879 216.254 108.556 216.254 103.213C216.254 99.4408 213.425 96.7017 209.743 95.3995C212.886 94.1871 215.491 91.897 215.491 88.2149C215.491 83.0959 210.372 79.9526 204.624 79.9526C199.056 79.9526 193.802 82.9612 193.802 88.2149C193.802 91.7174 196.182 94.0524 199.55 95.3995C195.868 96.6568 192.994 99.3959 192.994 103.213C192.994 108.511 198.113 111.879 204.624 111.879ZM204.624 93.6932C201.885 93.5135 198.338 91.897 198.338 88.7088C198.338 85.9697 201.077 83.949 204.624 83.949C208.172 83.949 210.956 85.9697 210.956 88.7088C210.956 91.8072 207.453 93.5135 204.624 93.6932ZM204.624 107.883C200.673 107.883 197.574 105.817 197.574 102.809C197.574 99.5306 201.616 97.5549 204.624 97.4651C207.678 97.5549 211.674 99.5306 211.674 102.809C211.674 105.817 208.576 107.883 204.624 107.883Z" fill="#090909"/>
<g filter="url(#filter0_d_2234_29517)">
<rect x="48.7344" y="244.263" width="216.884" height="51.6805" rx="25.8403" fill="#FF0000" fill-opacity="0.01" shape-rendering="crispEdges"/>
</g>
<rect x="45.1141" y="241.211" width="225.77" height="58.167" rx="29.0835" fill="white" stroke="#EBEBEB" stroke-width="0.898075"/>
<path d="M104.479 275.224H106.871V271.619H109.474C111.899 271.619 113.661 270.067 113.661 267.869C113.661 265.67 111.899 264.119 109.474 264.119H104.479V275.224ZM106.871 269.437V266.301H109.231C110.411 266.301 111.22 266.915 111.22 267.869C111.22 268.823 110.411 269.437 109.231 269.437H106.871ZM118.968 266.673C117.804 266.673 116.656 266.996 115.476 267.594L116.268 269.162C116.931 268.823 117.658 268.564 118.434 268.564C119.808 268.564 120.374 269.34 120.374 270.229V270.407C119.663 270.116 118.903 269.97 118.224 269.97C116.301 269.97 114.765 271.102 114.765 272.751C114.765 274.351 116.123 275.418 117.901 275.418C118.822 275.418 119.776 275.046 120.374 274.384V275.224H122.654V270.229C122.654 268.047 121.15 266.673 118.968 266.673ZM118.434 273.785C117.626 273.785 117.012 273.365 117.012 272.686C117.012 272.007 117.707 271.506 118.564 271.506C119.21 271.506 119.841 271.619 120.374 271.829V272.589C120.196 273.365 119.34 273.785 118.434 273.785ZM126.488 278.134C127.798 278.134 128.865 277.277 129.495 275.644L132.922 266.867H130.513L128.428 272.735L126.23 266.867H123.789L127.264 275.305L126.973 275.919C126.795 276.226 126.44 276.372 125.987 276.372C125.712 276.372 125.292 276.226 124.888 276L124.387 277.617C124.953 277.924 125.793 278.134 126.488 278.134ZM144.236 266.673C142.959 266.673 141.973 267.449 141.73 268.612C141.277 267.432 140.178 266.673 138.869 266.673C137.834 266.673 137.01 267.174 136.606 267.966V266.867H134.246V275.224H136.606V270.181C136.606 269.291 137.268 268.661 138.222 268.661C139.095 268.661 139.693 269.34 139.693 270.31V275.24H141.973V270.181C141.973 269.291 142.635 268.661 143.573 268.661C144.446 268.661 145.06 269.34 145.06 270.31V275.24H147.323V269.906C147.323 268.014 145.982 266.673 144.236 266.673ZM153.263 273.591C152.116 273.591 151.34 272.799 151.129 271.668H157.418C157.418 268.564 155.834 266.673 153.215 266.673C150.774 266.673 148.882 268.499 148.882 271.021C148.882 273.591 150.855 275.418 153.344 275.418C154.573 275.418 156.011 274.901 156.755 274.125L155.429 272.767C154.896 273.252 154.039 273.591 153.263 273.591ZM153.247 268.499C154.298 268.499 154.961 269.227 155.155 270.261H151.146C151.404 269.194 152.196 268.499 153.247 268.499ZM163.896 266.673C162.813 266.673 161.892 267.141 161.375 267.885V266.867H159.015V275.224H161.375V270.278C161.375 269.372 162.134 268.661 163.121 268.661C164.058 268.661 164.721 269.372 164.721 270.407V275.224H166.984V269.906C166.984 267.998 165.707 266.673 163.896 266.673ZM173.338 273.155C173.176 273.317 172.853 273.43 172.53 273.43C172.093 273.43 171.754 273.042 171.754 272.492V268.774H173.564V266.867H171.754V264.571H169.474V266.867H168.327V268.774H169.474V272.864C169.474 274.367 170.509 275.418 171.996 275.418C172.659 275.418 173.419 275.127 173.904 274.691L173.338 273.155ZM182.197 268.435V266.867H179.837V275.224H182.197V271.231C182.197 269.663 183.312 268.661 185.058 268.661V266.673C183.781 266.673 182.747 267.352 182.197 268.435ZM190.614 273.591C189.466 273.591 188.69 272.799 188.48 271.668H194.769C194.769 268.564 193.184 266.673 190.566 266.673C188.125 266.673 186.233 268.499 186.233 271.021C186.233 273.591 188.205 275.418 190.695 275.418C191.924 275.418 193.362 274.901 194.106 274.125L192.78 272.767C192.247 273.252 191.39 273.591 190.614 273.591ZM190.598 268.499C191.649 268.499 192.311 269.227 192.505 270.261H188.496C188.755 269.194 189.547 268.499 190.598 268.499ZM200.31 275.418C201.716 275.418 202.848 274.852 203.672 273.947L202.104 272.621C201.668 273.106 200.989 273.43 200.342 273.43C199.097 273.43 198.063 272.331 198.063 271.021C198.063 269.744 199.097 268.661 200.326 268.661C200.972 268.661 201.635 268.968 202.056 269.437L203.624 268.095C202.815 267.222 201.684 266.673 200.342 266.673C197.869 266.673 195.767 268.661 195.767 271.037C195.767 273.414 197.853 275.418 200.31 275.418ZM208.958 273.591C207.81 273.591 207.034 272.799 206.824 271.668H213.113C213.113 268.564 211.528 266.673 208.91 266.673C206.469 266.673 204.577 268.499 204.577 271.021C204.577 273.591 206.549 275.418 209.039 275.418C210.267 275.418 211.706 274.901 212.45 274.125L211.124 272.767C210.591 273.252 209.734 273.591 208.958 273.591ZM208.942 268.499C209.993 268.499 210.655 269.227 210.849 270.261H206.84C207.099 269.194 207.891 268.499 208.942 268.499ZM215.905 265.719C216.601 265.719 217.166 265.137 217.166 264.426C217.166 263.763 216.601 263.165 215.905 263.165C215.178 263.165 214.612 263.763 214.612 264.426C214.612 265.137 215.178 265.719 215.905 265.719ZM214.709 275.224H217.069V266.867H214.709V275.224ZM222.002 275.224H224.2L227.773 266.867H225.3L223.101 272.508L220.854 266.867H218.397L222.002 275.224ZM232.906 273.591C231.758 273.591 230.982 272.799 230.772 271.668H237.061C237.061 268.564 235.476 266.673 232.858 266.673C230.417 266.673 228.525 268.499 228.525 271.021C228.525 273.591 230.497 275.418 232.987 275.418C234.215 275.418 235.654 274.901 236.398 274.125L235.072 272.767C234.539 273.252 233.682 273.591 232.906 273.591ZM232.89 268.499C233.941 268.499 234.603 269.227 234.797 270.261H230.788C231.047 269.194 231.839 268.499 232.89 268.499ZM244.8 263.925V268.063C244.137 267.19 243.151 266.673 241.971 266.673C239.757 266.673 238.14 268.483 238.14 271.037C238.14 273.608 239.757 275.418 241.971 275.418C243.151 275.418 244.137 274.901 244.8 274.028V275.224H247.16V263.925H244.8ZM242.666 273.43C241.357 273.43 240.435 272.444 240.435 271.037C240.435 269.647 241.357 268.661 242.666 268.661C243.911 268.661 244.8 269.647 244.8 271.037C244.8 272.444 243.911 273.43 242.666 273.43Z" fill="#090909"/>
<circle cx="73.6615" cy="270.295" r="20.429" fill="#090909"/>
<path d="M63.9619 264.355C63.9619 263.363 64.7661 262.559 65.7581 262.559H81.5642C82.5562 262.559 83.3603 263.363 83.3603 264.355V275.851C83.3603 276.843 82.5562 277.647 81.5642 277.647H65.7581C64.7661 277.647 63.9619 276.843 63.9619 275.851V264.355Z" stroke="white" stroke-width="2.15538" stroke-linecap="round" stroke-linejoin="round"/>
<path d="M63.9619 267.948H83.3603" stroke="white" stroke-width="2.15538" stroke-linecap="round" stroke-linejoin="round"/>
<path d="M230.305 103.115C231.148 101.977 232.85 101.977 233.693 103.115L237.163 107.797C238.194 109.188 237.201 111.161 235.468 111.161H228.529C226.797 111.161 225.804 109.188 226.835 107.797L230.305 103.115Z" fill="#4FC553"/>
<defs>
<filter id="filter0_d_2234_29517" x="29.8748" y="229.893" width="254.603" height="89.3996" filterUnits="userSpaceOnUse" color-interpolation-filters="sRGB">
<feFlood flood-opacity="0" result="BackgroundImageFix"/>
<feColorMatrix in="SourceAlpha" type="matrix" values="0 0 0 0 0 0 0 0 0 0 0 0 0 0 0 0 0 0 127 0" result="hardAlpha"/>
<feOffset dy="4.49038"/>
<feGaussianBlur stdDeviation="9.42979"/>
<feComposite in2="hardAlpha" operator="out"/>
<feColorMatrix type="matrix" values="0 0 0 0 0 0 0 0 0 0 0 0 0 0 0 0 0 0 0.11 0"/>
<feBlend mode="normal" in2="BackgroundImageFix" result="effect1_dropShadow_2234_29517"/>
<feBlend mode="normal" in="SourceGraphic" in2="effect1_dropShadow_2234_29517" result="shape"/>
</filter>
<linearGradient id="paint0_linear_2234_29517" x1="158" y1="128.398" x2="158" y2="264.845" gradientUnits="userSpaceOnUse">
<stop stop-color="#FFF5E0"/>
<stop offset="1" stop-color="#FFF5E0" stop-opacity="0"/>
</linearGradient>
<linearGradient id="paint1_linear_2234_29517" x1="2" y1="175.866" x2="85.8869" y2="174.014" gradientUnits="userSpaceOnUse">
<stop stop-color="white"/>
<stop offset="1" stop-color="white" stop-opacity="0"/>
</linearGradient>
<linearGradient id="paint2_linear_2234_29517" x1="-3.08751e-07" y1="89.167" x2="83.8869" y2="87.3152" gradientUnits="userSpaceOnUse">
<stop stop-color="white"/>
<stop offset="1" stop-color="white" stop-opacity="0"/>
</linearGradient>
</defs>
</svg>
