<svg width="174" height="32" viewBox="0 0 174 32" fill="none" xmlns="http://www.w3.org/2000/svg">
<g clip-path="url(#clip0_2542_19472)">
<path d="M0 7.5766C0 3.49126 3.31182 0.179434 7.39716 0.179434H14.7943V7.57659C14.7943 11.6619 11.4825 14.9738 7.39716 14.9738V14.9738C3.31182 14.9738 0 11.6619 0 7.5766V7.5766Z" fill="#FF4545"/>
<path d="M0.000213623 24.3361C0.000213623 20.2507 3.31203 16.9389 7.39737 16.9389H14.7945V24.3361C14.7945 28.4214 11.4827 31.7332 7.39738 31.7332V31.7332C3.31204 31.7332 0.000213623 28.4214 0.000213623 24.3361V24.3361Z" fill="#FDB52A"/>
<path d="M16.8468 16.9389C16.8468 25.1096 23.4704 31.7332 31.6411 31.7332V31.7332V7.57658C31.6411 3.49124 28.3293 0.179419 24.2439 0.179419V0.179419C20.1586 0.179419 16.8468 3.49124 16.8468 7.57658V16.9389Z" fill="#2A66FF"/>
<path d="M50.4088 24.3149C54.4348 24.3149 56.8455 22.2175 56.8455 19.0594C56.8455 15.9978 54.483 14.937 50.9151 14.1415C48.3597 13.5629 47.3471 13.1772 47.3471 11.9718C47.3471 10.9834 48.2873 10.1879 49.782 10.1879C51.3731 10.1879 53.0365 10.8388 54.5312 12.0441L56.3875 9.46463C54.6758 8.01818 52.6026 7.17442 49.9025 7.17442C46.2623 7.17442 43.7551 9.27177 43.7551 12.3334C43.7551 15.5397 46.2623 16.5281 49.7579 17.3237C52.2892 17.9023 53.2535 18.2639 53.2535 19.4451C53.2535 20.4818 52.3374 21.3014 50.5293 21.3014C48.432 21.3014 46.648 20.4818 45.081 19.1317L43.056 21.5666C44.9846 23.3506 47.5159 24.3149 50.4088 24.3149ZM65.9423 20.9398C65.7013 21.1809 65.2191 21.3496 64.737 21.3496C64.086 21.3496 63.5798 20.7711 63.5798 19.9514V14.4067H66.2798V11.562H63.5798V8.13872H60.1806V11.562H58.469V14.4067H60.1806V20.5059C60.1806 22.7479 61.7235 24.3149 63.9414 24.3149C64.9298 24.3149 66.0629 23.8809 66.7861 23.23L65.9423 20.9398ZM74.3216 11.2727C72.5858 11.2727 70.8742 11.7548 69.1143 12.6468L70.2956 14.9853C71.284 14.479 72.3689 14.0933 73.526 14.0933C75.5752 14.0933 76.4189 15.2504 76.4189 16.5763V16.8415C75.3582 16.4076 74.2251 16.1906 73.2126 16.1906C70.3438 16.1906 68.0536 17.8782 68.0536 20.3371C68.0536 22.7238 70.0786 24.3149 72.7305 24.3149C74.1046 24.3149 75.5269 23.7604 76.4189 22.772V24.0256H79.8181V16.5763C79.8181 13.3218 77.5761 11.2727 74.3216 11.2727ZM73.526 21.88C72.3206 21.88 71.4046 21.2532 71.4046 20.2407C71.4046 19.2282 72.4412 18.4808 73.7189 18.4808C74.6832 18.4808 75.6234 18.6496 76.4189 18.963V20.096C76.1537 21.2532 74.876 21.88 73.526 21.88ZM86.4288 13.9004V11.562H82.9091V24.0256H86.4288V18.071C86.4288 15.7326 88.0922 14.2379 90.6958 14.2379V11.2727C88.7914 11.2727 87.2485 12.2852 86.4288 13.9004ZM99.6081 20.9398C99.367 21.1809 98.8849 21.3496 98.4027 21.3496C97.7518 21.3496 97.2456 20.7711 97.2456 19.9514V14.4067H99.9456V11.562H97.2456V8.13872H93.8464V11.562H92.1348V14.4067H93.8464V20.5059C93.8464 22.7479 95.3893 24.3149 97.6072 24.3149C98.5956 24.3149 99.7286 23.8809 100.452 23.23L99.6081 20.9398ZM110.012 11.2727C108.397 11.2727 107.023 11.9718 106.252 13.0808V7.17442H102.732V24.0256H106.252V16.6487C106.252 15.2986 107.385 14.2379 108.855 14.2379C110.253 14.2379 111.242 15.2986 111.242 16.8415V24.0256H114.617V16.0942C114.617 13.2495 112.712 11.2727 110.012 11.2727ZM125.876 11.562V18.9389C125.876 20.2889 124.743 21.3496 123.273 21.3496C121.874 21.3496 120.886 20.2889 120.886 18.746V11.562H117.511V19.4934C117.511 22.338 119.415 24.3149 122.14 24.3149C123.731 24.3149 125.105 23.6157 125.876 22.5068V24.0256H129.396V11.562H125.876ZM140.655 11.2727C138.799 11.2727 137.28 12.1165 136.292 13.5388V7.17442H132.772V24.0256H136.292V22.0488C137.28 23.4711 138.799 24.3149 140.655 24.3149C143.982 24.3149 146.369 21.6148 146.369 17.7817C146.369 13.9727 143.982 11.2727 140.655 11.2727ZM139.643 21.3496C137.762 21.3496 136.461 19.8791 136.461 17.7817C136.461 15.7085 137.762 14.2379 139.643 14.2379C141.571 14.2379 142.945 15.7085 142.945 17.7817C142.945 19.8791 141.571 21.3496 139.643 21.3496ZM170.822 7.46371H166.675L162.698 12.8879L158.72 7.46371H154.501L160.576 15.7808L154.501 24.0256H158.648L162.625 18.6014L166.603 24.0256H170.822L164.747 15.7085L170.822 7.46371Z" fill="#090909"/>
</g>
<defs>
<clipPath id="clip0_2542_19472">
<rect width="174" height="32" fill="white"/>
</clipPath>
</defs>
</svg>
