<svg width="166" height="41" viewBox="0 0 166 41" fill="none" xmlns="http://www.w3.org/2000/svg">
<path d="M18.2621 0.0431874C16.1206 0.285745 12.9084 1.29329 11.0807 2.30084C6.17006 4.96898 2.84706 9.12979 1.18556 14.6713C0.853256 15.7535 0.465572 18.7015 0.484033 20.0822C0.484033 21.295 0.853256 24.2617 1.07479 24.9707C1.18556 25.3065 1.42555 26.1089 1.62862 26.7246C1.96092 27.7694 3.56704 31.0533 3.84396 31.2772C3.89934 31.3332 4.19472 31.7063 4.47164 32.1355C5.1547 33.1617 6.94543 34.9902 8.29309 36.0351C9.32692 36.8374 12.2438 38.5353 12.613 38.5539C12.7053 38.5539 12.7238 37.8449 12.6684 36.912C12.5391 34.8409 12.9268 32.0235 13.7576 29.1502C13.9053 28.665 14.016 28.0307 14.016 27.7508C14.016 27.4709 14.0899 27.1724 14.1822 27.0791C14.2745 26.9671 14.4406 26.426 14.533 25.8663C14.6437 25.3065 14.8283 24.4483 14.9576 23.9631C15.1422 23.2355 15.1237 22.9556 14.8653 22.1719C14.496 20.9778 14.4776 19.0374 14.8468 18.1044C15.7145 15.8841 16.6744 15.0445 18.299 15.0445C20.2559 15.0445 21.1974 16.5371 20.8282 19.0374C20.662 20.1755 20.2005 21.9667 19.9051 22.5265C19.8313 22.6944 19.7021 23.1608 19.6467 23.5527C19.5728 23.9631 19.4252 24.5416 19.3328 24.8587C19.0744 25.5864 19.5728 27.0045 20.2374 27.5455C20.8651 28.0493 22.1759 28.1986 23.3758 27.9187C24.225 27.7321 24.5758 27.5082 25.4619 26.6499C26.5142 25.6051 27.3081 24.3923 27.3081 23.8139C27.3081 23.646 27.4004 23.4221 27.5111 23.3101C28.028 22.7877 28.305 18.7202 27.9173 17.0036C27.4927 15.1191 26.1819 13.2719 24.4835 12.1897C22.7851 11.0889 19.2775 10.7717 17.1175 11.5181C15.6037 12.0405 14.256 12.9174 13.3884 13.9436C12.613 14.8579 11.8007 16.3506 11.8007 16.873C11.8007 17.0596 11.7084 17.3021 11.5976 17.4141C11.4869 17.526 11.3576 18.235 11.3023 19C11.21 20.1382 11.2838 20.6606 11.6161 21.7801C11.8376 22.5451 12.2438 23.4407 12.4838 23.7766C12.9822 24.4483 12.9822 24.7095 12.5207 26.5007C12.3915 26.9858 12.1699 27.4336 12.0407 27.4896C10.8777 27.9374 8.51463 25.12 7.7208 22.3212C7.42542 21.2577 7.40696 17.4701 7.70234 16.3506C7.83156 15.8841 8.0531 15.2497 8.20079 14.9139C8.34848 14.5967 8.4777 14.2795 8.4777 14.2048C8.4777 14.1302 8.84693 13.4958 9.30845 12.8055C11.7084 9.14845 15.6037 7.20798 20.5328 7.20798C21.6589 7.20798 22.822 7.28261 23.1358 7.37591C25.6835 8.17821 26.3665 8.43943 27.3634 9.0365C29.3019 10.212 30.7049 11.8166 32.108 14.5034C32.2003 14.6713 32.3295 15.1191 32.3849 15.4923C32.4587 15.8654 32.5879 16.2199 32.6802 16.2759C32.7726 16.3319 32.8464 17.5447 32.8464 18.9814C32.8464 21.5749 32.6618 22.6197 31.8864 24.7468C31.0187 27.0791 28.7849 29.6539 26.7542 30.6615C25.5912 31.2212 23.4128 31.837 22.5451 31.837C21.382 31.837 19.0929 30.8667 18.4652 30.0831C18.1698 29.7286 17.8929 29.8592 17.8929 30.363C17.8929 30.5495 17.819 30.8667 17.7083 31.0533C17.616 31.2212 17.4498 31.7437 17.3575 32.2101C16.8221 34.673 16.0652 36.6695 14.9022 38.5353C14.5514 39.1137 14.8468 39.4495 15.8068 39.5802C16.2868 39.6548 16.9329 39.7854 17.2283 39.8787C17.9667 40.1212 21.9728 40.0839 23.3205 39.8414C24.5389 39.6175 26.5142 39.0577 27.4004 38.6846C32.9756 36.3709 37.2032 31.669 39.0309 25.6797C40.0093 22.4891 40.0647 18.7761 39.1786 15.0445C38.8832 13.8317 38.7909 13.5518 37.997 11.686C36.8525 8.96186 34.2679 5.77129 31.6464 3.81217C29.3942 2.13292 27.1788 1.16269 23.7266 0.323062C22.7666 0.0991623 19.3513 -0.0874208 18.2621 0.0431874ZM67.4979 6.77884C66.778 6.89079 65.6334 8.08492 65.338 9.01784C65.0241 10.044 65.338 11.1449 66.2241 12.0032C68.181 13.925 71.5778 12.1151 71.1532 9.35369C70.8948 7.59981 69.3071 6.48031 67.4979 6.77884ZM47.3753 7.87968C47.2092 8.06626 47.2092 30.5682 47.3938 30.8294C47.4861 30.9787 48.2799 31.0347 49.8306 31.016L52.1383 30.9973L52.2306 27.2097C52.3044 24.1311 52.3783 23.3847 52.5998 23.2541C52.7475 23.1608 54.0029 23.0675 55.3874 23.0675C58.4151 23.0675 59.6889 22.8436 61.0735 22.0973C62.8827 21.1084 63.9349 19.6904 64.5072 17.4327C64.858 16.0147 64.858 14.9885 64.4888 13.5331C64.1565 12.2271 64.0088 11.9099 63.215 10.8464C62.2365 9.52161 61.2396 8.79394 59.615 8.21553C58.7104 7.917 57.9535 7.86102 53.0613 7.80505C50.0152 7.76773 47.4492 7.80505 47.3753 7.87968ZM57.5105 12.5256C58.7474 12.9174 59.3566 13.4772 59.6335 14.4847C59.9843 15.8095 59.7258 17.0409 58.9504 17.7872C58.1012 18.5896 57.3443 18.7761 54.8705 18.7761C53.2459 18.7761 52.7475 18.7202 52.526 18.4776C52.286 18.2537 52.2306 17.7126 52.2306 15.5856C52.2306 12.2271 52.2121 12.2457 54.7782 12.2457C55.8859 12.2457 56.9566 12.3577 57.5105 12.5256ZM89.8913 11.4248C89.8913 12.7122 89.799 13.925 89.7067 14.1302C89.5774 14.3728 89.319 14.4847 88.8759 14.4847C88.5436 14.4847 88.2298 14.5594 88.1929 14.6713C88.1744 14.7646 88.1744 15.4176 88.2298 16.108C88.3221 17.3394 88.3406 17.3581 88.8944 17.4887C89.2082 17.5447 89.559 17.6566 89.6698 17.7313C89.8359 17.8246 89.8913 19.2986 89.8913 23.0302C89.8913 28.0493 89.9097 28.2359 90.3159 28.9822C91.1651 30.5682 92.4943 31.1279 95.1896 31.0533L96.9988 30.9973L97.0542 29.1875L97.1096 27.359H96.6481C95.9465 27.359 94.9127 26.7992 94.8019 26.3514C94.7466 26.1275 94.6912 24.1497 94.6912 21.9294C94.6912 18.8694 94.7466 17.8432 94.9312 17.694C95.0604 17.582 95.5773 17.4701 96.0758 17.4327L96.9988 17.3768V14.578L95.9835 14.522C95.4296 14.4847 94.9127 14.3541 94.8389 14.2422C94.765 14.1116 94.6912 12.8988 94.6912 11.5367V9.07381H89.8913V11.4248ZM158.511 9.18576C158.437 9.2604 158.382 10.4359 158.382 11.7979C158.382 14.4474 158.364 14.4847 157.348 14.4847C156.887 14.4847 156.887 14.5034 156.942 15.9214C156.998 17.3394 157.016 17.3768 157.496 17.4327C157.754 17.4701 158.068 17.6007 158.161 17.7126C158.271 17.8432 158.382 20.1009 158.437 22.9743C158.493 25.7357 158.585 28.2546 158.659 28.5531C158.881 29.3741 160.025 30.4189 161.114 30.7734C162.333 31.1839 165.434 31.2212 165.748 30.8294C165.896 30.6615 165.951 29.9898 165.914 29.0195L165.859 27.4523L165.213 27.3403C164.511 27.2284 163.717 26.8552 163.514 26.538C163.44 26.426 163.367 24.3923 163.367 22.0227C163.367 17.1529 163.256 17.4701 164.862 17.4701C165.914 17.4701 166.007 17.2835 165.914 15.5856L165.859 14.578L164.659 14.4847L163.459 14.3914L163.367 11.7793L163.274 9.1671L160.948 9.11113C159.674 9.09247 158.585 9.12979 158.511 9.18576ZM80.753 14.0369C79.8484 14.2795 78.7961 14.8952 78.0946 15.6229C77.2454 16.5185 77.0239 16.4625 76.9316 15.3243L76.8762 14.578H72.2609V30.9973L74.587 31.0346C76.8762 31.0906 76.9316 31.072 77.0423 30.6615C77.0977 30.4376 77.1531 28.068 77.1531 25.3812C77.1531 20.0636 77.1716 19.9143 78.2608 18.8694C78.7408 18.403 78.9992 18.3097 80.033 18.2537L81.233 18.1791L81.953 18.9441C82.8022 19.8397 82.7099 18.9814 82.7838 26.7059C82.8022 28.7583 82.8207 30.5682 82.8391 30.7548C82.8761 31.016 83.1714 31.0533 85.2391 31.016L87.5836 30.9973V17.8992L87.0483 16.8357C86.1252 14.9885 84.7037 14.1116 82.5253 13.9996C81.7499 13.9809 80.9561 13.9809 80.753 14.0369ZM103.829 14.0369C101.836 14.578 100.876 15.1191 99.6388 16.3506C97.9773 18.0485 97.2204 20.0262 97.2204 22.6944C97.2388 27.3776 100.137 30.8481 104.42 31.2585C108.076 31.6131 110.9 30.5309 112.709 28.0866C112.968 27.7321 113.522 26.594 113.522 26.3887C113.522 26.3141 112.451 26.2395 111.159 26.2395H108.795L108.242 26.8179C107.596 27.4896 106.691 27.9187 105.86 27.9187C105.029 27.9187 103.756 27.3216 103.165 26.6873C102.722 26.1835 102.076 24.7281 102.076 24.2244C102.076 24.0564 103.423 24.0005 107.762 24.0005C110.882 24.0005 113.522 23.9258 113.651 23.8512C113.928 23.6646 113.669 20.6979 113.263 19.6158C112.432 17.3581 110.863 15.455 109.275 14.7833C108.814 14.5967 108.279 14.3541 108.094 14.2608C107.706 14.0556 104.42 13.8877 103.829 14.0369ZM107.429 18.1231C108.149 18.6269 108.777 19.821 108.685 20.4927C108.629 20.9218 108.592 20.9218 105.472 20.9778C101.873 21.0338 101.854 21.0151 102.426 19.6717C102.833 18.7388 103.645 17.8992 104.402 17.6566C105.269 17.3768 106.672 17.6007 107.429 18.1231ZM131.152 14.0369C129.01 14.6153 127.515 15.5669 126.352 17.0409C125.891 17.638 125.521 18.1977 125.521 18.3097C125.521 18.403 125.392 18.7388 125.226 19.056C125.06 19.3545 124.82 20.2875 124.691 21.1271C124.044 25.12 125.817 28.8516 129.14 30.5309L130.413 31.1839H133.09C135.86 31.1839 136.1 31.1279 137.798 30.2137C139.035 29.542 141.066 26.9298 140.752 26.4074C140.678 26.3141 139.626 26.2395 138.389 26.2395H136.118L135.656 26.7806C133.81 28.8889 130.358 27.8068 129.62 24.8774C129.509 24.4856 129.509 24.1497 129.601 24.0751C129.693 24.0191 132.333 23.9818 135.49 24.0005C139.995 24.0005 141.213 23.9631 141.232 23.7766C141.398 21.4443 140.29 17.9925 138.906 16.4998C138.13 15.6602 136.783 14.7273 136.118 14.5594C135.823 14.4847 135.49 14.3541 135.361 14.2608C135.103 14.0556 131.724 13.8877 131.152 14.0369ZM134.032 17.6753C134.863 17.9738 135.823 19.0187 135.97 19.821C136.192 21.0338 136.21 21.0338 132.776 20.9778C129.693 20.9218 129.675 20.9218 129.62 20.4927C129.546 19.9703 130.192 18.6828 130.746 18.1977C131.54 17.526 132.924 17.3021 134.032 17.6753ZM147.213 14.0369C143.429 14.9512 142.062 16.3132 142.044 19.1493C142.044 22.2093 143.558 23.4967 148.044 24.299C151.127 24.8401 152.013 25.3252 151.976 26.5007C151.958 27.3403 151.385 27.8814 150.241 28.124C148.801 28.4411 147.675 28.0866 146.77 27.0604L146.05 26.2395H143.816C142.007 26.2395 141.582 26.2954 141.582 26.5007C141.582 27.0418 142.321 28.4598 142.93 29.1688C143.502 29.7845 143.945 30.0831 145.681 30.9227C145.847 31.016 146.752 31.1653 147.656 31.2772C149.336 31.4824 152.253 31.2959 152.991 30.9227C153.158 30.8481 153.638 30.6055 154.044 30.4189C155.096 29.9152 156.093 28.777 156.462 27.6948C156.868 26.4634 156.758 24.7468 156.185 23.5527C155.502 22.1533 153.693 21.1457 150.998 20.6606C147.527 20.0449 147.472 20.0262 146.918 19.4852C146.253 18.7948 146.253 18.5522 146.918 17.8059C147.453 17.2088 147.49 17.1902 148.967 17.1902C150.444 17.1902 150.481 17.2088 151.016 17.8059C151.311 18.1418 151.551 18.5336 151.551 18.6828C151.551 18.9067 151.939 18.9627 153.859 18.9627C156.407 18.9627 156.333 19.0187 155.89 17.694C155.078 15.343 152.991 14.1489 149.521 14.0183C148.45 13.9809 147.416 13.9809 147.213 14.0369ZM122.66 14.4287C121.848 14.7086 120.721 15.6415 120.371 16.3132C120.02 16.9849 119.706 16.7051 119.614 15.5856L119.521 14.578H114.906L114.851 22.4145C114.832 26.7246 114.851 30.4376 114.906 30.6801C114.998 31.0906 115.054 31.0906 117.269 31.0533C118.543 31.0346 119.577 30.9227 119.651 30.8108C119.724 30.7175 119.798 28.7397 119.798 26.426C119.798 22.769 119.835 22.116 120.149 21.295C120.795 19.5971 122.18 18.5896 123.915 18.5896C124.395 18.5896 124.598 18.4963 124.654 18.2537C124.783 17.7126 124.801 15.1937 124.691 14.634C124.58 14.1862 124.487 14.1116 123.989 14.1302C123.657 14.1489 123.066 14.2795 122.66 14.4287ZM65.7995 14.7086C65.7441 14.8392 65.7257 18.5149 65.7441 22.881L65.7995 30.8108L67.9964 30.904C69.3256 30.96 70.2856 30.9227 70.4333 30.8108C70.6363 30.6615 70.6917 29.0755 70.6917 22.7317C70.7102 18.403 70.6548 14.7646 70.5994 14.6713C70.4148 14.3914 65.8918 14.4287 65.7995 14.7086Z" fill="#DF0023"/>
</svg>
