<svg width="128" height="43" viewBox="0 0 128 43" fill="none" xmlns="http://www.w3.org/2000/svg">
<path d="M122.256 7.80096H116.684V0H104.449L98.8222 7.80096H88.8236L85.4804 11.1442V7.80096H77.6794V0H53.1621V7.80096H18.6707L13.0428 0H0.78418V26.7462L16.3861 42.3481H31.988V37.8904L36.4457 42.3481H66.5352V37.8904L70.9929 42.3481H85.4804V37.8904L89.9381 42.3481H117.799L127.828 32.3183V13.3731L122.256 7.80096ZM19.7294 18.9452H11.9284V21.174H19.7294V30.0894H7.47072L3.01303 25.6317V2.22885H11.9284V10.0298H19.7294V18.9452ZM53.1621 30.0894H26.4159L21.9582 25.6317V10.0298H30.8736V21.174H33.1025V10.0298H42.0178V21.174H44.2467V10.0298H53.1621V30.0894ZM64.3063 30.0894H55.3909V10.0298H64.3063V30.0894ZM64.3063 7.80096H55.3909V2.22885H64.3063V7.80096ZM83.2515 18.9452H75.4505V21.174H83.2515V30.0894H70.9929L66.5352 25.6317V2.22885H75.4505V10.0298H83.2515V18.9452ZM103.311 18.9452H94.3957V21.174H103.311V30.0894H89.9381L85.4804 25.6317V14.4875L89.9381 10.0298H103.311V18.9452ZM125.6 30.0894H116.684V18.9452H114.455V30.0894H105.54V2.22885H114.455V10.0298H121.142L125.6 14.4875V30.0894Z" fill="#8D44F7"/>
</svg>
