<svg width="149" height="33" viewBox="0 0 149 33" fill="none" xmlns="http://www.w3.org/2000/svg">
<path d="M25.1581 32.9154L15.4865 32.7366C12.355 32.6744 9.21581 32.7988 6.14585 32.1533C1.47552 31.1891 1.14467 26.4611 0.798432 22.4952C0.321396 16.9196 0.506055 11.2429 1.40627 5.71396C1.91408 2.61122 3.91456 0.760462 7.0076 0.558278C17.4485 -0.172693 27.9587 -0.0871536 38.3766 0.255003C39.4768 0.286108 40.5848 0.457187 41.6697 0.651594C47.0248 1.6003 47.1556 6.95816 47.5018 11.4684C47.848 16.0253 47.7019 20.6056 47.0402 25.1314C46.5093 28.8795 45.4936 32.0211 41.208 32.3244C35.8375 32.721 30.5901 33.0398 25.2042 32.9387C25.2042 32.9154 25.1734 32.9154 25.1581 32.9154V32.9154ZM19.4721 23.4283C23.5192 21.0799 27.4894 18.7703 31.5134 16.4375C27.4586 14.089 23.4961 11.7795 19.4721 9.44658V23.4283Z" fill="#F70001"/>
<path d="M125.077 28.6544C124.893 29.4165 124.731 30.0153 124.57 30.6529H120.784V1.1416H125.2V12.0285C125.431 11.733 125.547 11.6086 125.647 11.4764C126.401 10.4266 127.378 9.74226 128.64 9.47787C130.648 9.08127 132.364 9.97555 132.972 11.9274C133.364 13.1405 133.618 14.4392 133.649 15.7067C133.71 18.965 133.664 22.2156 133.549 25.4739C133.502 26.4692 133.202 27.4879 132.825 28.4211C131.587 31.5005 127.539 31.9671 125.531 29.2998C125.408 29.1365 125.293 28.9577 125.077 28.6544V28.6544ZM125.293 20.5359V25.9327C125.293 26.8114 125.754 27.348 126.624 27.5501C127.478 27.7523 128.17 27.4179 128.517 26.617C128.663 26.2826 128.809 25.9327 128.817 25.5827C128.901 22.2855 128.978 18.9884 129.001 15.6834C129.001 15.0691 128.855 14.4314 128.67 13.8326C128.324 12.7517 127.37 12.4329 126.431 13.0628C125.724 13.5449 125.293 14.2292 125.293 15.1391V20.5359ZM113.29 9.89779H117.914V30.6685H114.306C114.175 29.8831 114.044 29.0743 113.89 28.1256C113.644 28.4911 113.498 28.7244 113.344 28.9577C112.144 30.7073 110.443 31.3061 108.435 30.9873C106.719 30.7074 105.688 29.3698 105.457 27.1769C105.388 26.5237 105.357 25.8627 105.357 25.2095C105.342 20.3492 105.357 15.4734 105.357 10.6132V9.88224H110.035V10.7299C110.035 15.4268 110.02 20.1159 110.051 24.8129C110.051 25.4816 110.12 26.1737 110.235 26.8425C110.366 27.5268 110.859 27.7757 111.52 27.729C112.59 27.6435 113.328 26.8425 113.328 25.7694V10.8154C113.29 10.5121 113.29 10.2322 113.29 9.89779V9.89779ZM81.4517 9.88224H86.0989V10.761C86.0989 15.4346 86.0835 20.1004 86.1143 24.7584C86.1143 25.4272 86.1759 26.1193 86.3144 26.7725C86.4913 27.5424 86.9376 27.7912 87.6993 27.6901C88.7534 27.5424 89.392 26.8036 89.3997 25.7227V10.8465V9.91334H94.0239V30.6685H90.4307C90.2999 29.8986 90.1691 29.1054 89.9998 28.1023C89.769 28.4522 89.6382 28.6544 89.5074 28.8644C88.3071 30.6451 86.6221 31.2984 84.5678 30.9795C82.9213 30.7307 81.9133 29.502 81.6056 27.4879C81.5209 26.858 81.4594 26.2359 81.4594 25.6061C81.444 20.5592 81.444 15.489 81.444 10.4421L81.4517 9.88224ZM79.0665 20.9713C79.0511 21.6712 79.0049 22.3711 78.9665 23.071C78.7895 25.1706 78.7049 28.1489 77.0276 29.6809C75.9581 30.6451 74.6039 30.9951 73.2036 31.0417C72.5804 31.0573 71.9494 31.0573 71.3262 30.9717C68.3794 30.5207 67.0098 29.2065 66.5174 25.9327C65.9557 22.1533 65.9096 18.3118 66.5789 14.5325C67.2714 10.621 69.6566 9.2368 73.3652 9.49342C76.8275 9.74226 78.374 12.0363 78.7818 15.3024C79.0049 17.1765 79.1127 19.0739 79.0665 20.9713V20.9713ZM74.3577 20.2559C74.3577 18.9262 74.3885 17.5886 74.3423 16.2589C74.3115 15.489 74.2115 14.7114 74.0499 13.9493C73.8653 13.0705 73.3113 12.6506 72.6188 12.6662C71.9417 12.6817 71.4647 13.1017 71.2185 13.9182C71.1339 14.2215 71.0415 14.5325 71.0415 14.8358C71.0415 16.9199 71.0261 19.0117 71.0108 21.0958C70.9954 23.0399 70.7492 25.0773 71.357 26.9358C71.5416 27.5035 72.0187 27.8145 72.6419 27.8145C73.2497 27.8145 73.6498 27.5113 73.873 26.9669C74.0499 26.547 74.2038 26.0882 74.2038 25.6372C74.2577 23.8486 74.3577 22.0523 74.3577 20.2559ZM59.7312 16.3444C60.139 14.3303 60.5237 12.3629 60.9468 10.3877C61.4777 7.87594 62.0702 5.36417 62.5934 2.84463C62.7242 2.23029 62.9704 2.08254 63.5475 2.09809C64.7862 2.14475 66.048 2.11365 67.3714 2.11365C66.9406 3.71558 66.5174 5.23975 66.1019 6.74059C64.7862 11.4531 63.4705 16.1811 62.1702 20.9091C62.0702 21.2746 62.024 21.6712 62.024 22.06C62.0086 24.6418 62.024 27.2158 62.024 29.7975V30.6374H57.5076C57.4922 30.4041 57.4614 30.1708 57.4614 29.9375C57.4614 28.4755 57.346 27.0058 57.4768 25.5594C57.8076 22.0834 56.7151 18.8873 55.8303 15.6523C54.6607 11.3753 53.4759 7.08275 52.3063 2.80574C52.2448 2.60356 52.2217 2.38582 52.1602 2.13698H56.7689C57.7384 6.85723 58.7155 11.5775 59.7312 16.3444ZM148.098 21.7645H140.312C140.396 23.3431 140.427 24.844 140.589 26.3293C140.704 27.3635 141.266 27.8068 142.151 27.8145C143.074 27.8301 143.612 27.3635 143.828 26.337C143.897 26.0026 143.943 25.6683 143.974 25.3261C144.005 25.0228 144.02 24.6962 144.043 24.2607C145.359 24.3307 146.644 24.4085 147.913 24.4629C148.652 26.6792 147.321 29.5253 145.082 30.4041C143.32 31.1039 141.512 31.1039 139.712 30.5674C138.38 30.1708 137.388 29.3154 136.942 28.0012C136.526 26.7725 136.134 25.4894 136.049 24.2063C135.818 21.0413 135.734 17.8452 136.211 14.6725C136.295 14.1437 136.442 13.6382 136.603 13.125C137.249 11.0098 138.657 9.71116 140.835 9.49342C142.02 9.37678 143.243 9.42343 144.413 9.62562C146.305 9.96 147.313 11.3364 147.752 13.1405C147.952 13.9882 148.098 14.8591 148.129 15.7223C148.137 17.7053 148.098 19.6727 148.098 21.7645ZM143.674 19.035C143.674 17.472 143.689 16.0022 143.659 14.5247C143.659 14.1748 143.528 13.8093 143.397 13.4749C143.135 12.8217 142.589 12.6429 141.935 12.6429C141.281 12.6429 140.866 12.9772 140.704 13.576C140.212 15.3724 140.373 17.2076 140.389 19.0506C141.566 19.035 142.635 19.035 143.674 19.035V19.035Z" fill="black"/>
<path d="M97.5936 5.92448H93.0156V2.17627H106.68V5.90115H102.133V30.6378H97.6013L97.5936 5.92448Z" fill="black"/>
</svg>
